<svg xmlns="http://www.w3.org/2000/svg" width="19.243" height="18.502" viewBox="0 0 19.243 18.502">
  <path id="icons8_chat_bubble" d="M11.621,3C6.307,3,2,6.645,2,11.141a7.688,7.688,0,0,0,3.413,6.214,3.274,3.274,0,0,1-1.691,3.43h0a.37.37,0,0,0,.132.716h.032a6.505,6.505,0,0,0,4.386-2.014,1.432,1.432,0,0,1,1.26-.4,11.2,11.2,0,0,0,2.093.2c5.314,0,9.621-3.645,9.621-8.141S16.935,3,11.621,3ZM7.181,9.661a1.48,1.48,0,1,1-1.48,1.48A1.48,1.48,0,0,1,7.181,9.661Zm4.441,0a1.48,1.48,0,1,1-1.48,1.48A1.48,1.48,0,0,1,11.621,9.661Zm4.441,0a1.48,1.48,0,1,1-1.48,1.48A1.48,1.48,0,0,1,16.062,9.661Z" transform="translate(-2 -3)" fill="#cacdcd"/>
</svg>
