<svg xmlns="http://www.w3.org/2000/svg" xmlns:xlink="http://www.w3.org/1999/xlink" width="694.5" height="368.25" viewBox="0 0 694.5 368.25">
  <defs>
    <clipPath id="clip-path">
      <rect width="685" height="269.5" fill="none"/>
    </clipPath>
  </defs>
  <g id="Groupe_14" data-name="Groupe 14" transform="translate(-1083.5 -3457.25)">
    <g id="Grille_de_répétition_1" data-name="Grille de répétition 1" transform="translate(1093 3457.25)" opacity="0.44" clip-path="url(#clip-path)">
      <g transform="translate(-1146.5 -3120)">
        <line id="Ligne_12" data-name="Ligne 12" x2="685" transform="translate(1146.5 3120.5)" fill="none" stroke="#707070" stroke-width="1"/>
      </g>
      <g transform="translate(-1146.5 -3099)">
        <line id="Ligne_12-2" data-name="Ligne 12" x2="685" transform="translate(1146.5 3120.5)" fill="none" stroke="#707070" stroke-width="1"/>
      </g>
      <g transform="translate(-1146.5 -3078)">
        <line id="Ligne_12-3" data-name="Ligne 12" x2="685" transform="translate(1146.5 3120.5)" fill="none" stroke="#707070" stroke-width="1"/>
      </g>
      <g transform="translate(-1146.5 -3057)">
        <line id="Ligne_12-4" data-name="Ligne 12" x2="685" transform="translate(1146.5 3120.5)" fill="none" stroke="#707070" stroke-width="1"/>
      </g>
      <g transform="translate(-1146.5 -3036)">
        <line id="Ligne_12-5" data-name="Ligne 12" x2="685" transform="translate(1146.5 3120.5)" fill="none" stroke="#707070" stroke-width="1"/>
      </g>
      <g transform="translate(-1146.5 -3015)">
        <line id="Ligne_12-6" data-name="Ligne 12" x2="685" transform="translate(1146.5 3120.5)" fill="none" stroke="#707070" stroke-width="1"/>
      </g>
      <g transform="translate(-1146.5 -2994)">
        <line id="Ligne_12-7" data-name="Ligne 12" x2="685" transform="translate(1146.5 3120.5)" fill="none" stroke="#707070" stroke-width="1"/>
      </g>
      <g transform="translate(-1146.5 -2973)">
        <line id="Ligne_12-8" data-name="Ligne 12" x2="685" transform="translate(1146.5 3120.5)" fill="none" stroke="#707070" stroke-width="1"/>
      </g>
      <g transform="translate(-1146.5 -2952)">
        <line id="Ligne_12-9" data-name="Ligne 12" x2="685" transform="translate(1146.5 3120.5)" fill="none" stroke="#707070" stroke-width="1"/>
      </g>
      <g transform="translate(-1146.5 -2931)">
        <line id="Ligne_12-10" data-name="Ligne 12" x2="685" transform="translate(1146.5 3120.5)" fill="none" stroke="#707070" stroke-width="1"/>
      </g>
      <g transform="translate(-1146.5 -2910)">
        <line id="Ligne_12-11" data-name="Ligne 12" x2="685" transform="translate(1146.5 3120.5)" fill="none" stroke="#707070" stroke-width="1"/>
      </g>
      <g transform="translate(-1146.5 -2889)">
        <line id="Ligne_12-12" data-name="Ligne 12" x2="685" transform="translate(1146.5 3120.5)" fill="none" stroke="#707070" stroke-width="1"/>
      </g>
      <g transform="translate(-1146.5 -2868)">
        <line id="Ligne_12-13" data-name="Ligne 12" x2="685" transform="translate(1146.5 3120.5)" fill="none" stroke="#707070" stroke-width="1"/>
      </g>
    </g>
    <circle id="Ellipse_17" data-name="Ellipse 17" cx="15.5" cy="15.5" r="15.5" transform="translate(1137 3778) rotate(-90)" fill="#75c9f2"/>
    <circle id="Ellipse_18" data-name="Ellipse 18" cx="15.5" cy="15.5" r="15.5" transform="translate(1215 3778) rotate(-90)" fill="#10771d"/>
    <circle id="Ellipse_19" data-name="Ellipse 19" cx="15.5" cy="15.5" r="15.5" transform="translate(1293 3778) rotate(-90)" fill="#d4a319"/>
    <circle id="Ellipse_20" data-name="Ellipse 20" cx="15.5" cy="15.5" r="15.5" transform="translate(1371 3778) rotate(-90)" fill="#f13755"/>
    <circle id="Ellipse_21" data-name="Ellipse 21" cx="15.5" cy="15.5" r="15.5" transform="translate(1449 3778) rotate(-90)" fill="#1e65c1"/>
    <circle id="Ellipse_22" data-name="Ellipse 22" cx="15.5" cy="15.5" r="15.5" transform="translate(1683 3778) rotate(-90)" fill="#9e0ae9"/>
    <circle id="Ellipse_23" data-name="Ellipse 23" cx="15.5" cy="15.5" r="15.5" transform="translate(1527 3778) rotate(-90)" fill="#ff6f00"/>
    <circle id="Ellipse_24" data-name="Ellipse 24" cx="15.5" cy="15.5" r="15.5" transform="translate(1605 3778) rotate(-90)" fill="#0a4de9"/>
    <rect id="Rectangle_27" data-name="Rectangle 27" width="7" height="223" transform="translate(1149 3520)" fill="#75c9f2"/>
    <rect id="Rectangle_28" data-name="Rectangle 28" width="7" height="159" transform="translate(1227 3584)" fill="#10771d"/>
    <rect id="Rectangle_29" data-name="Rectangle 29" width="7" height="243" transform="translate(1305 3500)" fill="#d4a319"/>
    <rect id="Rectangle_30" data-name="Rectangle 30" width="7" height="117" transform="translate(1383 3626)" fill="#f13755"/>
    <rect id="Rectangle_31" data-name="Rectangle 31" width="7" height="180" transform="translate(1461 3563)" fill="#1e65c1"/>
    <rect id="Rectangle_32" data-name="Rectangle 32" width="7" height="264" transform="translate(1539 3479)" fill="#ff6f00"/>
    <rect id="Rectangle_33" data-name="Rectangle 33" width="7" height="243" transform="translate(1617 3500)" fill="#0a4de9"/>
    <rect id="Rectangle_34" data-name="Rectangle 34" width="7" height="139" transform="translate(1695 3604)" fill="#9e0ae9"/>
    <line id="Ligne_13" data-name="Ligne 13" x2="685" transform="translate(1083.5 3824.5)" fill="none" stroke="#707070" stroke-width="2"/>
  </g>
</svg>
