<svg xmlns="http://www.w3.org/2000/svg" width="43.568" height="45" viewBox="0 0 43.568 45">
  <path id="icons8_settings" d="M18.412,1l-.778,4.143A19.135,19.135,0,0,0,9.8,9.663L5.818,8.27l-4.6,7.96L4.4,18.955A18.751,18.751,0,0,0,3.721,23.5,18.751,18.751,0,0,0,4.4,28.045L1.223,30.77l4.6,7.961,3.968-1.406a19.172,19.172,0,0,0,7.847,4.545L18.412,46H27.6l.778-4.131a19.184,19.184,0,0,0,7.835-4.545l3.968,1.406,4.608-7.961L41.6,28.045a18.771,18.771,0,0,0,.69-4.545,18.764,18.764,0,0,0-.678-4.545l3.176-2.725L40.2,8.27,36.228,9.663a19.122,19.122,0,0,0-7.847-4.52L27.6,1Zm2.662,3.214h3.867l.628,3.39,1.03.251a16.053,16.053,0,0,1,8.161,4.708l.715.766,3.264-1.143,1.934,3.34-2.612,2.247.314,1a16.2,16.2,0,0,1,0,9.442l-.314,1,2.612,2.248-1.934,3.34-3.264-1.155-.715.778A16.162,16.162,0,0,1,26.6,39.157l-1.03.226-.628,3.4H21.073l-.628-3.4-1.03-.226a16.161,16.161,0,0,1-8.161-4.721l-.728-.778L7.262,34.813l-1.921-3.34,2.612-2.248-.314-1a16.2,16.2,0,0,1,0-9.442l.314-1L5.341,15.527l1.921-3.34,3.277,1.143.716-.766a16.053,16.053,0,0,1,8.161-4.708l1.03-.251Zm1.934,9.643A9.643,9.643,0,1,0,32.65,23.5,9.661,9.661,0,0,0,23.007,13.857Zm0,3.214A6.429,6.429,0,1,1,16.578,23.5,6.409,6.409,0,0,1,23.007,17.071Z" transform="translate(-1.223 -1)" fill="#75f2f1"/>
</svg>
